<?xml version="1.0" encoding="UTF-8"?>
<svg width="75px" height="24px" viewBox="0 0 75 24" version="1.1" xmlns="http://www.w3.org/2000/svg" xmlns:xlink="http://www.w3.org/1999/xlink">
    <title>5824566A-8C8B-4767-BB2B-DE85B9B8AEDC@1.00x</title>
    <g id="Homepage" stroke="none" stroke-width="1" fill="none" fill-rule="evenodd">
        <g transform="translate(-40.000000, -24.000000)" id="Nav">
            <g>
                <g id="logo" transform="translate(40.000000, 24.000000)">
                    <g id="Page-1-Copy">
                        <path d="M3.69059107,0.260162602 C4.23937072,0.260162602 4.68292683,0.708502857 4.68292683,1.25885552 L4.68292683,3.94364642 C4.68292683,4.49560642 4.23937072,4.94308943 3.69059107,4.94308943 L0.990739853,4.94308943 C0.442704954,4.94308943 0,4.49560642 0,3.94364642 L0,1.25885552 C0,0.708502857 0.442704954,0.260162602 0.990739853,0.260162602 L3.69059107,0.260162602 Z" id="Fill-1" fill="#1495D3"></path>
                        <path d="M3.89657951,7.80487805 L1.04640024,7.80487805 C0.467918597,7.80487805 0,8.26728243 0,8.83932908 L0,23.1544715 L3.89657951,23.1544715 C4.47418366,23.1544715 4.94308943,22.6920672 4.94308943,22.1207789 L4.94308943,8.83932908 C4.94308943,8.26728243 4.47418366,7.80487805 3.89657951,7.80487805" id="Fill-3" fill="#1495D3"></path>
                        <path d="M20.5390306,0 L13.307085,0.163941807 C8.86873752,0.316258847 7.10363263,3.581406 7.10363263,6.75637973 L7.02439024,23.1544715 L11.0686256,23.1544715 C11.6513943,23.1544715 12.123091,22.6907846 12.123091,22.1171512 L12.0758992,15.6321609 C12.0758992,15.0386459 12.4977516,14.5932109 13.0999717,14.5932109 L16.9175318,14.5932109 C17.5012951,14.5932109 17.9728813,14.1287635 17.9728813,13.5567598 L17.9728813,11.2071445 C17.9728813,10.6342716 17.5012951,10.1705847 16.9175318,10.1705847 L12.0986662,10.1705847 L12.0986662,7.42040381 C12.0986662,5.75882263 12.9845895,5.07328731 14.9754854,5.07328731 L20.5390306,5.0600329 C21.1210256,5.0600329 21.5934959,4.59558544 21.5934959,4.02271258 L21.5934959,1.03732033 C21.5934959,0.465316606 21.1210256,0 20.5390306,0" id="Fill-5" fill="#2E3134" opacity="0.797662"></path>
                        <path d="M27.831486,0.260162602 L24.9816319,0.260162602 C24.40317,0.260162602 23.9349593,0.72737462 23.9349593,1.30536887 L23.9349593,23.4146341 L27.831486,23.4146341 C28.4099478,23.4146341 28.8780488,22.9466558 28.8780488,22.3703036 L28.8780488,1.30536887 C28.8780488,0.72737462 28.4099478,0.260162602 27.831486,0.260162602" id="Fill-7" fill="#2E3134" opacity="0.797662"></path>
                        <path d="M44.690553,6.75637973 C44.690553,3.581406 42.9228744,0.316258847 38.48194,0.163072665 L32.2766457,0 C31.6940939,0 31.2195122,0.464447464 31.2195122,1.03732033 L31.2195122,4.02347308 C31.2195122,4.59558544 31.6940939,5.0600329 32.2766457,5.0600329 L36.8110584,5.07415645 C38.8039697,5.07415645 39.6908512,5.75795349 39.6908512,7.42029516 L39.6082143,23.1544715 L43.6908339,23.1544715 C44.2758195,23.1544715 44.7479675,22.6907846 44.7479675,22.1179117 L44.690553,6.75637973 Z" id="Fill-9" fill="#2E3134" opacity="0.797662"></path>
                        <path d="M52.0171607,0 C52.0171607,0 45.4767894,0.149089355 44.6230057,0.149089355 C43.8813627,0.210492247 43.7803044,0.71256435 44.2626631,1.16173378 C45.9476268,2.63361368 46.1841976,5.03794516 46.1841976,5.15381655 L52.0171607,5.20325203 C52.6007972,5.20325203 53.0731707,4.72254232 53.0731707,4.12853365 L53.0731707,1.07561315 C53.0731707,0.480709712 52.6007972,0 52.0171607,0" id="Fill-11" fill="#2E3134" opacity="0.797662"></path>
                        <path d="M74.4885415,10.611007 C74.4885415,10.611007 71.0817255,7.33590693 71.001697,7.25802622 C70.5036078,6.84168894 70.1225932,7.01573069 70.0733449,7.5122202 C70.0676286,7.56619586 70.068508,7.77831262 70.0668591,7.82439204 C70.0644406,7.9228246 70.0587243,8.02136532 70.0515789,8.11904071 C69.9837526,9.02699996 69.7133267,9.92868549 69.2773475,10.7309649 C68.6055701,11.9686192 67.3818382,12.916276 66.3749966,13.8838356 C63.0675566,17.0621256 56.9756098,22.8943089 56.9756098,22.8943089 L63.4695677,22.8943089 C63.8384901,22.8943089 64.1921324,22.7513113 64.4545334,22.4954948 L74.4885415,12.6938833 C75.0729252,12.1186477 75.0729252,11.1861344 74.4885415,10.611007" id="Fill-16" fill="#1495D3"></path>
                        <path d="M67.2067837,3.3560208 C67.0983185,3.22652157 64.7605025,0.855859062 64.7605025,0.855859062 C64.6717176,0.77011404 64.5830445,0.692414501 64.4911286,0.624303417 C64.1757969,0.388890347 63.8325102,0.260162602 63.406365,0.260162602 L59.5139186,0.260162602 L56.9756098,0.260162602 L61.4838476,4.61056526 L62.7320918,5.81011388 L67.4679947,10.362866 C67.538553,10.4308669 67.6567465,10.4178618 67.708519,10.3345415 C68.9633605,8.31754962 69.2145077,5.75908567 67.2067837,3.3560208" id="Fill-18" fill="#1495D3"></path>
                    </g>
                </g>
            </g>
        </g>
    </g>
</svg>